<svg height="512pt" viewBox="0 -22 512.00002 512" width="512pt" xmlns="http://www.w3.org/2000/svg"><path d="m432.550781 353.101562h-361.929687c-4.875 0-8.828125-3.953124-8.828125-8.828124 0-1.492188.378906-2.960938 1.105469-4.269532l185.378906-335.449218c1.554687-2.808594 4.511718-4.554688 7.722656-4.554688h.089844c3.246094.03125 6.210937 1.84375 7.722656 4.714844l176.550781 335.445312c2.273438 4.316406.617188 9.65625-3.695312 11.925782-1.269531.667968-2.683594 1.019531-4.117188 1.015624zm-346.921875-17.652343h332.304688l-162.117188-308.03125zm0 0" fill="#787d82"/><path d="m388.414062 291.308594c0 24.378906-19.761718 44.140625-44.136718 44.140625-24.378906 0-44.140625-19.761719-44.140625-44.140625 0-24.375 19.761719-44.136719 44.140625-44.136719 24.375 0 44.136718 19.761719 44.136718 44.136719zm0 0" fill="#a8a8a8"/><path d="m300.136719 114.757812c0 24.378907-19.761719 44.136719-44.136719 44.136719-24.378906 0-44.136719-19.757812-44.136719-44.136719 0-24.375 19.757813-44.136718 44.136719-44.136718 24.375 0 44.136719 19.761718 44.136719 44.136718zm0 0" fill="#e06661"/><path d="m256 203.035156c0 24.375-19.761719 44.136719-44.136719 44.136719-24.378906 0-44.140625-19.761719-44.140625-44.136719 0-24.378906 19.761719-44.140625 44.140625-44.140625 24.375 0 44.136719 19.761719 44.136719 44.140625zm0 0" fill="#8aced8"/><path d="m211.863281 291.308594c0 24.378906-19.761719 44.140625-44.140625 44.140625-24.375 0-44.136718-19.761719-44.136718-44.140625 0-24.375 19.761718-44.136719 44.136718-44.136719 24.378906 0 44.140625 19.761719 44.140625 44.136719zm0 0" fill="#f7ba61"/><path d="m344.277344 203.035156c0 24.375-19.761719 44.136719-44.140625 44.136719-24.375 0-44.136719-19.761719-44.136719-44.136719 0-24.378906 19.761719-44.140625 44.136719-44.140625 24.378906 0 44.140625 19.761719 44.140625 44.140625zm0 0" fill="#8dc79d"/><path d="m300.136719 291.308594c0 24.378906-19.761719 44.140625-44.136719 44.140625-24.378906 0-44.136719-19.761719-44.136719-44.140625 0-24.375 19.757813-44.136719 44.136719-44.136719 24.375 0 44.136719 19.761719 44.136719 44.136719zm0 0" fill="#8f563b"/><path d="m273.65625 300.136719c-4.875 0-8.828125-3.953125-8.828125-8.828125s-3.953125-8.828125-8.828125-8.828125-8.828125-3.949219-8.828125-8.824219c0-4.878906 3.953125-8.828125 8.828125-8.828125 14.625 0 26.484375 11.855469 26.484375 26.480469 0 4.875-3.953125 8.828125-8.828125 8.828125zm0 0" fill="#c17450"/><path d="m361.929688 300.136719c-4.875 0-8.828126-3.953125-8.828126-8.828125s-3.949218-8.828125-8.824218-8.828125c-4.878906 0-8.828125-3.949219-8.828125-8.824219 0-4.878906 3.949219-8.828125 8.828125-8.828125 14.625 0 26.480468 11.855469 26.480468 26.480469 0 4.875-3.953124 8.828125-8.828124 8.828125zm0 0" fill="#dbdbdb"/><path d="m317.792969 211.863281c-4.875 0-8.828125-3.953125-8.828125-8.828125s-3.953125-8.828125-8.828125-8.828125-8.828125-3.953125-8.828125-8.828125 3.953125-8.828125 8.828125-8.828125c14.628906 0 26.484375 11.855469 26.484375 26.484375 0 4.875-3.953125 8.828125-8.828125 8.828125zm0 0" fill="#99d8aa"/><path d="m273.65625 123.585938c-4.875 0-8.828125-3.953126-8.828125-8.828126s-3.953125-8.828124-8.828125-8.828124-8.828125-3.953126-8.828125-8.828126 3.953125-8.828124 8.828125-8.828124c14.625 0 26.484375 11.859374 26.484375 26.484374 0 4.875-3.953125 8.828126-8.828125 8.828126zm0 0" fill="#ea6b65"/><path d="m229.515625 211.863281c-4.875 0-8.824219-3.953125-8.824219-8.828125s-3.953125-8.828125-8.828125-8.828125c-4.878906 0-8.828125-3.953125-8.828125-8.828125s3.949219-8.828125 8.828125-8.828125c14.625 0 26.480469 11.855469 26.480469 26.484375 0 4.875-3.949219 8.828125-8.828125 8.828125zm0 0" fill="#aedee2"/><path d="m185.378906 300.136719c-4.875 0-8.828125-3.953125-8.828125-8.828125s-3.953125-8.828125-8.828125-8.828125-8.828125-3.949219-8.828125-8.824219c0-4.878906 3.953125-8.828125 8.828125-8.828125 14.628906 0 26.484375 11.855469 26.484375 26.480469 0 4.875-3.953125 8.828125-8.828125 8.828125zm0 0" fill="#fbd699"/><path d="m512 397.242188c0 39-31.617188 70.621093-70.621094 70.621093s-70.621094-31.621093-70.621094-70.621093c0-39.003907 31.617188-70.621094 70.621094-70.621094s70.621094 31.617187 70.621094 70.621094zm0 0" fill="#ebebeb"/><path d="m441.300781 441.378906c-11.996093-.03125-23.460937-4.929687-31.78125-13.566406-3.464843-3.429688-3.496093-9.019531-.070312-12.484375 3.429687-3.46875 9.015625-3.5 12.484375-.070313.105468.101563.207031.207032.308594.316407 1.550781 1.609375 3.296874 3.015625 5.199218 4.1875 12.445313 7.675781 28.761719 3.8125 36.4375-8.636719 4.953125-8.058594 5.246094-18.144531.777344-26.480469-2.335938-4.277343-.765625-9.640625 3.511719-11.980469 4.277343-2.339843 9.644531-.765624 11.980469 3.511719.019531.03125.035156.066407.054687.101563 7.453125 13.894531 6.960937 30.699218-1.289063 44.136718-8.070312 13.019532-22.296874 20.949219-37.613281 20.964844zm0 0" fill="#f9f9f9"/><path d="m0 379.585938h335.449219v52.964843h-335.449219zm0 0" fill="#8f563b"/><path d="m0 414.894531h335.449219v17.65625h-335.449219zm0 0" fill="#875138"/><path d="m264.828125 379.585938h70.621094v52.964843h-70.621094zm0 0" fill="#d9d9d9"/><path d="m264.828125 414.894531h70.621094v17.65625h-70.621094zm0 0" fill="#cdcdcd"/></svg>